<?xml version="1.0" standalone="no"?>
<!DOCTYPE svg PUBLIC "-//W3C//DTD SVG 20010904//EN"
 "http://www.w3.org/TR/2001/REC-SVG-20010904/DTD/svg10.dtd">
<svg version="1.0" xmlns="http://www.w3.org/2000/svg"
 width="193.000000pt" height="258.000000pt" viewBox="0 0 193.000000 258.000000"
 preserveAspectRatio="xMidYMid meet">

<g transform="translate(0.000000,258.000000) scale(0.100000,-0.100000)"
fill="#000000" stroke="none">
<path d="M997 2490 c-24 -130 -53 -207 -102 -275 -51 -71 -173 -205 -187 -205
-6 0 -9 47 -7 130 5 151 17 155 -112 -34 -84 -122 -179 -295 -179 -327 0 -45
-22 -19 -84 96 -37 69 -71 127 -76 130 -18 11 -45 -204 -59 -473 -5 -96 -11
-176 -14 -178 -2 -3 -30 24 -62 58 l-58 63 6 -140 c13 -274 59 -455 136 -539
l26 -29 -35 6 c-19 3 -50 9 -69 13 -31 6 -32 5 -23 -12 10 -19 136 -143 202
-199 20 -17 46 -48 60 -70 37 -61 87 -120 114 -135 14 -7 31 -29 37 -47 14
-42 165 -195 246 -249 115 -76 231 -82 344 -16 83 49 252 215 270 264 7 21 21
40 31 44 25 8 96 91 123 145 13 25 43 63 67 84 24 21 72 65 108 98 l64 60 -52
-6 c-83 -10 -87 -4 -36 65 63 86 234 450 234 498 0 6 -39 -9 -87 -34 -49 -24
-98 -46 -110 -50 l-21 -7 24 76 c22 70 54 268 54 336 0 30 -2 29 -97 -55 -53
-47 -98 -85 -99 -83 -1 1 5 31 12 67 16 71 31 352 21 392 -6 24 -8 23 -62 -29
-31 -30 -61 -53 -67 -51 -6 2 -19 38 -29 80 -10 41 -39 132 -65 202 l-47 128
-28 -111 c-29 -115 -68 -202 -80 -179 -3 7 -9 42 -13 77 -8 88 -63 246 -135
390 -34 66 -62 121 -64 121 -2 0 -10 -41 -20 -90z m310 -1284 c49 -55 79 -129
100 -244 19 -109 15 -146 -15 -150 -13 -2 -22 -7 -20 -10 2 -4 11 -28 22 -54
l18 -47 34 25 33 25 12 -23 c7 -13 13 -57 13 -98 1 -63 -3 -81 -24 -115 -37
-60 -90 -115 -111 -115 -13 0 -21 -12 -30 -42 -8 -34 -30 -62 -97 -128 -48
-47 -116 -105 -152 -129 l-65 -43 -90 4 c-90 3 -91 3 -157 50 -36 26 -100 81
-142 123 -59 59 -79 85 -88 120 -9 33 -17 45 -31 45 -22 0 -69 47 -109 109
-24 39 -28 55 -28 115 0 102 11 112 60 57 l40 -44 0 32 c0 17 7 48 15 67 l15
36 -30 -7 c-28 -6 -30 -5 -30 25 0 18 9 77 20 131 45 218 116 329 211 329 70
0 101 -42 179 -245 24 -60 47 -119 53 -129 8 -16 23 6 93 145 60 119 94 174
124 203 39 36 45 38 88 33 40 -4 53 -12 89 -51z"/>
</g>
</svg>
